<svg xmlns="http://www.w3.org/2000/svg" viewBox="0 0 246.06 161.47"><defs><style>.cls-1,.cls-2{fill:#fff;}.cls-1,.cls-2,.cls-3{stroke:#000;stroke-width:5px;}.cls-1,.cls-3{stroke-linecap:round;}.cls-1{stroke-linejoin:round;}.cls-2,.cls-3{stroke-miterlimit:10;}.cls-3{fill:none;}</style></defs><g id="Layer_2" data-name="Layer 2"><g id="Layer_2-2" data-name="Layer 2"><polygon class="cls-1" points="173.97 2.5 69.36 47.47 56.1 57.88 50.9 74.93 76.93 149.72 104.57 152.56 215.16 128.91 243.56 96.23 243.56 48.89 218.17 10.11 217.53 9.13 173.97 2.5"/><path class="cls-2" d="M2.5,106.18a56.54,56.54,0,0,0,2.88,18.57c7.61,23.1,26.88,37.92,43.05,33.42l29-5c22-6.24,25.75-31.2,17-56.69S67.81,52.61,46.51,61L34.78,66.67"/><path class="cls-2" d="M2.5,106.18c.1-15,6.36-27.56,17.09-32l15.19-7.53"/><ellipse cx="42.86" cy="120.54" rx="2.31" ry="2.5" transform="translate(-34.14 18.37) rotate(-17.43)"/><ellipse cx="30.13" cy="115.59" rx="2.31" ry="2.5" transform="translate(-33.24 14.33) rotate(-17.43)"/><ellipse cx="37.15" cy="105.11" rx="2.31" ry="2.5" transform="matrix(0.95, -0.3, 0.3, 0.95, -29.78, 15.95)"/><ellipse cx="26.52" cy="99.86" rx="2.31" ry="2.5" transform="translate(-28.69 12.53) rotate(-17.43)"/><ellipse cx="46.37" cy="92.54" rx="2.31" ry="2.5" transform="translate(-25.59 18.14) rotate(-17.43)"/><ellipse cx="54.49" cy="107.48" rx="2.31" ry="2.5" transform="translate(-29.69 21.26) rotate(-17.43)"/><ellipse cx="56.8" cy="123.9" rx="2.31" ry="2.5" transform="translate(-34.5 22.7) rotate(-17.43)"/><ellipse cx="52.79" cy="139.14" rx="2.31" ry="2.5" transform="matrix(0.95, -0.3, 0.3, 0.95, -39.25, 22.2)"/><ellipse cx="36.65" cy="131.32" rx="2.31" ry="2.5" transform="matrix(0.95, -0.3, 0.3, 0.95, -37.65, 17.01)"/><ellipse cx="42.99" cy="146.39" rx="2.31" ry="2.5" transform="translate(-41.87 19.6) rotate(-17.43)"/><ellipse cx="33.16" cy="141.3" rx="2.31" ry="2.5" transform="translate(-40.8 16.42) rotate(-17.43)"/><ellipse cx="24.71" cy="126.97" rx="2.31" ry="2.5" transform="translate(-36.9 13.23) rotate(-17.43)"/><ellipse cx="20.2" cy="111.64" rx="2.31" ry="2.5" transform="translate(-32.51 11.18) rotate(-17.43)"/><ellipse cx="20.13" cy="139.6" rx="2.31" ry="2.5" transform="translate(-40.89 12.44) rotate(-17.43)"/><path d="M14.5,124a2.38,2.38,0,0,1-1.58,3,2.8,2.8,0,0,1-3.14-2,2.38,2.38,0,0,1,1.84-2.85A2.42,2.42,0,0,1,14.5,124Z"/><ellipse cx="10.3" cy="107.22" rx="2.31" ry="2.5" transform="translate(-31.64 8.01) rotate(-17.43)"/><ellipse cx="14.47" cy="91.48" rx="2.31" ry="2.5" transform="matrix(0.95, -0.3, 0.3, 0.95, -26.74, 8.54)"/><ellipse cx="22.47" cy="83.06" rx="2.31" ry="2.5" transform="matrix(0.95, -0.3, 0.3, 0.95, -23.85, 10.54)"/><ellipse cx="34.57" cy="83.36" rx="2.31" ry="2.5" transform="translate(-23.38 14.18) rotate(-17.43)"/><path class="cls-3" d="M66.37,155c22.06-6.24,27.32-29.29,18.57-54.78s-27.69-45.52-47.11-35"/><path class="cls-3" d="M54,157.25c19.81-5.57,30.86-26.76,22.1-52.25S48.78,58.79,29.36,69.33"/></g></g></svg>